<svg width="516" height="115" viewBox="0 0 516 115" fill="none" xmlns="http://www.w3.org/2000/svg">
<path d="M150.008 42.888C157.475 42.888 161.208 47.5387 161.208 56.84V73.928C161.208 74.824 160.931 75.5707 160.376 76.168C159.821 76.7227 159.096 77 158.2 77C157.304 77 156.557 76.7013 155.96 76.104C155.405 75.5067 155.128 74.7813 155.128 73.928V56.904C155.128 51.3147 152.781 48.52 148.088 48.52C146.424 48.52 144.909 48.904 143.544 49.672C142.221 50.3973 141.176 51.4 140.408 52.68C139.683 53.96 139.32 55.368 139.32 56.904V73.928C139.32 74.7813 139.021 75.5067 138.424 76.104C137.869 76.7013 137.144 77 136.248 77C135.352 77 134.627 76.7227 134.072 76.168C133.517 75.5707 133.24 74.824 133.24 73.928V56.84C133.24 54.3227 132.707 52.3173 131.64 50.824C130.573 49.288 128.803 48.52 126.328 48.52C123.811 48.52 121.72 49.3307 120.056 50.952C118.435 52.5307 117.624 54.4933 117.624 56.84V73.928C117.624 74.7813 117.325 75.5067 116.728 76.104C116.173 76.7013 115.448 77 114.552 77C113.656 77 112.931 76.7227 112.376 76.168C111.821 75.5707 111.544 74.824 111.544 73.928V46.536C111.544 45.6827 111.821 44.9573 112.376 44.36C112.973 43.7627 113.699 43.464 114.552 43.464C115.448 43.464 116.173 43.7627 116.728 44.36C117.325 44.9573 117.624 45.6827 117.624 46.536V48.776C118.733 47.112 120.205 45.7253 122.04 44.616C123.917 43.464 125.944 42.888 128.12 42.888C133.411 42.888 136.845 45.2347 138.424 49.928C139.363 48.136 140.92 46.5147 143.096 45.064C145.272 43.6133 147.576 42.888 150.008 42.888ZM194.942 43.144C195.838 43.144 196.563 43.4427 197.118 44.04C197.715 44.6373 198.014 45.3627 198.014 46.216V73.864C198.014 79.1973 196.542 83.1867 193.598 85.832C190.654 88.4773 186.771 89.8 181.95 89.8C180.371 89.8 178.814 89.6507 177.278 89.352C175.742 89.0533 174.483 88.648 173.502 88.136C171.923 87.4107 171.134 86.4293 171.134 85.192C171.134 84.9787 171.176 84.7013 171.262 84.36C171.518 83.6347 171.88 83.08 172.35 82.696C172.819 82.312 173.352 82.12 173.95 82.12C174.291 82.12 174.611 82.184 174.91 82.312C176.232 82.9093 177.406 83.3787 178.43 83.72C179.454 84.0613 180.648 84.232 182.014 84.232C188.627 84.232 191.934 80.84 191.934 74.056V72.776C190.782 74.312 189.288 75.5067 187.454 76.36C185.662 77.2133 183.592 77.64 181.246 77.64C177.704 77.64 174.931 76.5093 172.926 74.248C170.963 71.9867 169.982 69.0213 169.982 65.352V46.216C169.982 45.32 170.259 44.5947 170.814 44.04C171.368 43.4427 172.094 43.144 172.99 43.144C173.886 43.144 174.611 43.4427 175.166 44.04C175.763 44.6373 176.062 45.3627 176.062 46.216V63.752C176.062 66.568 176.68 68.6587 177.918 70.024C179.155 71.3467 181.032 72.008 183.55 72.008C185.982 72.008 187.987 71.24 189.566 69.704C191.144 68.168 191.934 66.184 191.934 63.752V46.216C191.934 45.32 192.211 44.5947 192.766 44.04C193.32 43.4427 194.046 43.144 194.942 43.144Z" fill="#272727"/>
<path d="M233.156 71.112C234.052 71.112 234.777 71.4107 235.332 72.008C235.929 72.6053 236.228 73.3093 236.228 74.12C236.228 74.9733 235.929 75.6773 235.332 76.232C234.777 76.744 234.052 77 233.156 77H210.884C210.031 77 209.305 76.7013 208.708 76.104C208.111 75.5067 207.812 74.7813 207.812 73.928V35.272C207.812 34.4187 208.111 33.6933 208.708 33.096C209.305 32.4987 210.031 32.2 210.884 32.2H233.156C234.052 32.2 234.777 32.4773 235.332 33.032C235.929 33.5867 236.228 34.312 236.228 35.208C236.228 36.0613 235.929 36.7653 235.332 37.32C234.777 37.832 234.052 38.088 233.156 38.088H214.148V51.144H230.276C231.172 51.144 231.897 51.4213 232.452 51.976C233.049 52.5307 233.348 53.2347 233.348 54.088C233.348 54.984 233.049 55.688 232.452 56.2C231.897 56.712 231.172 56.968 230.276 56.968H214.148V71.112H233.156ZM267.928 72.264C268.397 72.776 268.632 73.3733 268.632 74.056C268.632 74.9093 268.312 75.656 267.672 76.296C267.032 76.8933 266.328 77.192 265.56 77.192C264.579 77.192 263.747 76.744 263.064 75.848L254.488 65.032L246.04 75.848C245.741 76.2747 245.379 76.5947 244.952 76.808C244.525 77.0213 244.077 77.128 243.608 77.128C242.883 77.128 242.2 76.872 241.56 76.36C240.963 75.8053 240.664 75.1653 240.664 74.44C240.664 73.672 240.899 73.032 241.368 72.52L250.968 60.552L241.112 48.136C240.685 47.5813 240.472 46.984 240.472 46.344C240.472 45.4907 240.771 44.7653 241.368 44.168C242.008 43.5707 242.733 43.272 243.544 43.272C244.568 43.272 245.4 43.6987 246.04 44.552L254.808 55.624L263.064 44.616C263.704 43.72 264.515 43.272 265.496 43.272C266.307 43.272 266.989 43.5493 267.544 44.104C268.099 44.616 268.376 45.2347 268.376 45.96C268.376 46.7707 268.141 47.432 267.672 47.944L258.2 59.912L267.928 72.264ZM291.501 42.888C294.402 42.888 297.026 43.6347 299.373 45.128C301.72 46.5787 303.554 48.6267 304.877 51.272C306.242 53.9173 306.925 56.904 306.925 60.232C306.925 63.56 306.242 66.5467 304.877 69.192C303.554 71.7947 301.72 73.8427 299.373 75.336C297.026 76.8293 294.445 77.576 291.629 77.576C289.41 77.576 287.341 77.0853 285.421 76.104C283.501 75.1227 281.944 73.928 280.749 72.52V86.728C280.749 87.5813 280.45 88.3067 279.853 88.904C279.298 89.5013 278.573 89.8 277.677 89.8C276.824 89.8 276.098 89.5013 275.501 88.904C274.946 88.3493 274.669 87.624 274.669 86.728V46.472C274.669 45.576 274.946 44.8293 275.501 44.232C276.056 43.6347 276.781 43.336 277.677 43.336C278.573 43.336 279.298 43.6347 279.853 44.232C280.45 44.8293 280.749 45.576 280.749 46.472V48.328C281.773 46.8347 283.266 45.5547 285.229 44.488C287.192 43.4213 289.282 42.888 291.501 42.888ZM290.797 71.944C292.76 71.944 294.53 71.432 296.109 70.408C297.688 69.384 298.904 67.9973 299.757 66.248C300.653 64.456 301.101 62.4507 301.101 60.232C301.101 58.0133 300.653 56.0293 299.757 54.28C298.904 52.488 297.688 51.08 296.109 50.056C294.53 49.032 292.76 48.52 290.797 48.52C288.792 48.52 287 49.032 285.421 50.056C283.842 51.0373 282.605 52.424 281.709 54.216C280.856 56.008 280.429 58.0133 280.429 60.232C280.429 62.4507 280.856 64.456 281.709 66.248C282.605 68.04 283.842 69.448 285.421 70.472C287 71.4533 288.792 71.944 290.797 71.944ZM345.726 60.232C345.726 63.56 344.979 66.5467 343.486 69.192C341.992 71.8373 339.944 73.9067 337.342 75.4C334.782 76.8933 331.944 77.64 328.83 77.64C325.715 77.64 322.856 76.8933 320.254 75.4C317.694 73.9067 315.667 71.8373 314.174 69.192C312.68 66.5467 311.934 63.56 311.934 60.232C311.934 56.904 312.68 53.896 314.174 51.208C315.667 48.52 317.694 46.4293 320.254 44.936C322.856 43.4427 325.715 42.696 328.83 42.696C331.944 42.696 334.782 43.4427 337.342 44.936C339.944 46.4293 341.992 48.52 343.486 51.208C344.979 53.896 345.726 56.904 345.726 60.232ZM339.646 60.232C339.646 57.928 339.155 55.88 338.174 54.088C337.235 52.2533 335.934 50.8453 334.27 49.864C332.648 48.84 330.835 48.328 328.83 48.328C326.824 48.328 324.99 48.84 323.326 49.864C321.704 50.8453 320.403 52.2533 319.422 54.088C318.483 55.88 318.014 57.928 318.014 60.232C318.014 62.4933 318.483 64.52 319.422 66.312C320.403 68.104 321.704 69.512 323.326 70.536C324.99 71.5173 326.824 72.008 328.83 72.008C330.835 72.008 332.648 71.5173 334.27 70.536C335.934 69.512 337.235 68.104 338.174 66.312C339.155 64.52 339.646 62.4933 339.646 60.232ZM350.874 71.752C350.49 71.1547 350.298 70.5787 350.298 70.024C350.298 69.1707 350.746 68.4453 351.642 67.848C352.069 67.5493 352.559 67.4 353.114 67.4C353.882 67.4 354.586 67.72 355.226 68.36C356.506 69.8107 357.871 70.8987 359.322 71.624C360.815 72.3493 362.586 72.712 364.634 72.712C366.255 72.6693 367.685 72.3067 368.922 71.624C370.159 70.8987 370.778 69.7467 370.778 68.168C370.778 66.7173 370.138 65.608 368.858 64.84C367.621 64.072 365.786 63.368 363.354 62.728C360.965 62.088 358.981 61.4267 357.402 60.744C355.823 60.0187 354.479 58.9947 353.37 57.672C352.303 56.3067 351.77 54.536 351.77 52.36C351.77 50.44 352.303 48.7547 353.37 47.304C354.479 45.8533 355.93 44.7227 357.722 43.912C359.557 43.1013 361.541 42.696 363.674 42.696C365.722 42.696 367.749 43.08 369.754 43.848C371.802 44.616 373.466 45.7893 374.746 47.368C375.258 47.9653 375.514 48.584 375.514 49.224C375.514 49.9067 375.173 50.568 374.49 51.208C374.063 51.592 373.53 51.784 372.89 51.784C372.122 51.784 371.503 51.528 371.034 51.016C370.138 49.992 369.029 49.2027 367.706 48.648C366.426 48.0933 364.997 47.816 363.418 47.816C361.797 47.816 360.41 48.1573 359.258 48.84C358.149 49.48 357.594 50.5893 357.594 52.168C357.637 53.6613 358.277 54.7707 359.514 55.496C360.794 56.2213 362.735 56.9253 365.338 57.608C367.599 58.2053 369.477 58.8453 370.97 59.528C372.463 60.2107 373.722 61.2347 374.746 62.6C375.77 63.9227 376.282 65.672 376.282 67.848C376.282 69.8533 375.706 71.6027 374.554 73.096C373.402 74.5467 371.887 75.6773 370.01 76.488C368.175 77.256 366.213 77.64 364.122 77.64C361.434 77.64 358.938 77.1707 356.634 76.232C354.373 75.2933 352.453 73.8 350.874 71.752ZM408.254 43.464C409.15 43.464 409.875 43.7627 410.43 44.36C411.027 44.9573 411.326 45.6827 411.326 46.536V63.56C411.326 67.9973 410.089 71.4533 407.614 73.928C405.182 76.36 401.726 77.576 397.246 77.576C392.809 77.576 389.374 76.36 386.942 73.928C384.51 71.4533 383.294 67.9973 383.294 63.56V46.536C383.294 45.6827 383.571 44.9573 384.126 44.36C384.723 43.7627 385.449 43.464 386.302 43.464C387.198 43.464 387.923 43.7627 388.478 44.36C389.075 44.9573 389.374 45.6827 389.374 46.536V63.56C389.374 69.1493 391.998 71.944 397.246 71.944C399.849 71.944 401.833 71.24 403.198 69.832C404.563 68.424 405.246 66.3333 405.246 63.56V46.536C405.246 45.6827 405.523 44.9573 406.078 44.36C406.675 43.7627 407.401 43.464 408.254 43.464ZM437.123 42.696C438.232 42.696 439.192 42.9947 440.003 43.592C440.814 44.1467 441.219 44.8507 441.219 45.704C441.219 46.728 440.942 47.5173 440.387 48.072C439.875 48.584 439.235 48.84 438.467 48.84C438.083 48.84 437.507 48.712 436.739 48.456C435.843 48.1573 435.139 48.008 434.627 48.008C433.304 48.008 432.003 48.4773 430.723 49.416C429.486 50.312 428.462 51.5707 427.651 53.192C426.883 54.7707 426.499 56.5413 426.499 58.504V73.928C426.499 74.7813 426.2 75.5067 425.603 76.104C425.048 76.7013 424.323 77 423.427 77C422.531 77 421.806 76.7227 421.251 76.168C420.696 75.5707 420.419 74.824 420.419 73.928V46.536C420.419 45.6827 420.696 44.9573 421.251 44.36C421.848 43.7627 422.574 43.464 423.427 43.464C424.323 43.464 425.048 43.7627 425.603 44.36C426.2 44.9573 426.499 45.6827 426.499 46.536V49.8C427.438 47.7093 428.846 46.024 430.723 44.744C432.6 43.4213 434.734 42.7387 437.123 42.696ZM474.859 58.952C474.816 59.72 474.496 60.3813 473.899 60.936C473.302 61.448 472.598 61.704 471.787 61.704H449.259C449.558 64.8187 450.731 67.3147 452.779 69.192C454.87 71.0693 457.408 72.008 460.395 72.008C462.443 72.008 464.107 71.7093 465.387 71.112C466.667 70.5147 467.798 69.7467 468.779 68.808C469.419 68.424 470.038 68.232 470.635 68.232C471.36 68.232 471.958 68.488 472.427 69C472.939 69.512 473.195 70.1093 473.195 70.792C473.195 71.688 472.768 72.4987 471.915 73.224C470.678 74.4613 469.035 75.5067 466.987 76.36C464.939 77.2133 462.848 77.64 460.715 77.64C457.259 77.64 454.208 76.9147 451.563 75.464C448.96 74.0133 446.934 71.9867 445.483 69.384C444.075 66.7813 443.371 63.8373 443.371 60.552C443.371 56.968 444.096 53.832 445.547 51.144C447.04 48.4133 448.982 46.3227 451.371 44.872C453.803 43.4213 456.406 42.696 459.179 42.696C461.91 42.696 464.47 43.4 466.859 44.808C469.248 46.216 471.168 48.1573 472.619 50.632C474.07 53.1067 474.816 55.88 474.859 58.952ZM459.179 48.328C456.79 48.328 454.72 49.0107 452.971 50.376C451.222 51.6987 450.07 53.768 449.515 56.584H468.395V56.072C468.182 53.8107 467.158 51.9547 465.323 50.504C463.531 49.0533 461.483 48.328 459.179 48.328Z" fill="#3461FF"/>
<circle cx="51" cy="73" r="10" stroke="#3461FF" stroke-width="4"/>
<circle cx="79" cy="73" r="10" stroke="#02B660" stroke-width="4"/>
<circle cx="65" cy="48" r="10" stroke="#FF3D00" stroke-width="4"/>
</svg>
